<mxfile host="app.diagrams.net" modified="2023-08-11T09:02:26.567Z" agent="Mozilla/5.0 (Windows NT 10.0; Win64; x64) AppleWebKit/537.36 (KHTML, like Gecko) Chrome/115.0.0.0 Safari/537.36" version="21.6.8" etag="K8eKRpMBw5z1UlEs-NvW" type="github">
  <diagram name="第 1 页" id="oJOmQi2QWsTDyzbEVRAR">
    <mxGraphModel>
      <root>
        <mxCell id="0" />
        <mxCell id="1" parent="0" />
      </root>
    </mxGraphModel>
  </diagram>
</mxfile>
